<svg id="Layer_1" data-name="Layer 1" xmlns="http://www.w3.org/2000/svg" viewBox="0 0 144.98 185.26"><defs><style>.cls-1{fill:#1b1b1b;}</style></defs><title>nyt</title><path d="M177.85,141.25c-2.09,28.91-22.26,54.36-56,58.87s-67.69-12-81.29-41c-12.2-26-6.74-54.6,14.17-74.21,1-.91,1.82-1.95,2.73-2.93,1.49-4.26,5.43-6,8.86-7.91,8.35-4.71,16.44-10.32,26.67-10.19,1.57,2.29.29,4.11-1.42,5.23-8.45,5.52-13.83,13.57-18.33,22.15l5,.63c-11.92,9.23-10,22.28-8.88,34.64,1.23,13.44,7.24,24.69,18.9,32.34,15.19,9.62,31.47,10.6,48.45,6.15,3.37-.88,4.88-3,4.9-6.38.05-7.72.07-15.43,0-23.15-.06-5.76-4.29-8.8-8-12-12-10.45-12.66-11.19-.13-20.56,9.07-6.79,8.39-15.15,8.11-24.19-.12-3.6-2.62-4.31-5.5-4.78-12.37-2-24.26-5.8-36.11-9.74a153.28,153.28,0,0,0-27.61-7.08c-12.64-1.81-18.72,4.18-17,16.92.19,1.35.45,2.72-.82,3.75C41.86,74.75,35.18,61.74,39.05,47.71c4-14.66,17.88-24.8,34.31-25.16,13.22-.28,25.47,3.88,37.67,8.24,8.56,3.05,17.1,6.15,26.2,7.22,3.93.46,7.74.31,11-2.35A10.21,10.21,0,0,0,152,24.73a8.68,8.68,0,0,0-7.41-7c-2.11-.38-4.18-1-7.28-1.8,19-2.16,32.77,6.49,35.72,21,3.16,15.51-6.58,30.54-22.69,34.3-4.16,1-5.16,2.54-5.77,6.92-1.88,13.38,2.43,23.24,13.9,30.19,4.62,2.8,5.71,5.86.3,9.13-11.69,7.06-16.25,17.22-14.08,30.81.81,5,.13,10.28.13,16.09,15.2-6.09,24.58-17,31.52-30.39C180.22,135.68,177.76,138.72,177.85,141.25Z" transform="translate(-34.09 -15.6)"/><path class="cls-1" d="M177.85,141.25c-1-2.34.72-5.23-1.5-7.32,0-1.59.52-2.92,2.73-4.33C178.78,134,179.51,137.67,177.85,141.25Z" transform="translate(-34.09 -15.6)"/><path d="M87.45,158.82c-2.61-1.56-1.29-4.09-1.3-6.13-.11-19.53,0-39.07-.2-58.61,0-1.57,2.57-5.79-2.73-4.74,10.38-6.93,22.3-10.49,34.29-16.46,0,20.09-.82,39.16.31,58.11.65,11-2.12,17.18-13,20.08C98.75,152.68,93.21,156.17,87.45,158.82Z" transform="translate(-34.09 -15.6)"/></svg>